<svg width="148" height="34" viewBox="0 0 148 34" fill="none" xmlns="http://www.w3.org/2000/svg">
<g clip-path="url(#clip0_101_2211)">
<path d="M130.96 12.5455C131.964 12.5455 132.778 13.3595 132.778 14.3636C132.778 15.3678 131.964 16.1818 130.96 16.1818H124.085C123.081 16.1818 122.267 15.3678 122.267 14.3636C122.267 13.3595 123.081 12.5455 124.085 12.5455H130.96ZM124.653 10.7841C124.653 9.44732 125.737 8.36365 127.074 8.36365C128.411 8.36365 129.494 9.44732 129.494 10.7841V24.6364C129.494 25.0833 129.562 25.4318 129.699 25.6818C129.835 25.9243 130.025 26.0947 130.267 26.1932C130.517 26.2917 130.805 26.3409 131.131 26.3409C131.331 26.3409 136.93 26.2555 138.404 26.2093C138.623 26.2025 138.841 26.2897 138.989 26.45C139.259 26.7403 139.209 27.2019 138.883 27.4275L135.877 29.5116C135.627 29.6847 135.35 29.8118 135.049 29.8502C134.805 29.8812 134.516 29.9126 134.268 29.9508C134.089 29.9786 133.909 30.0038 133.728 30.0093C132.25 30.0545 128.224 30.1054 127.403 29.7727C126.532 29.4167 125.854 28.8636 125.369 28.1136C124.884 27.3636 124.646 26.4167 124.653 25.2727V10.7841Z" fill="#EDC06C"/>
<path d="M111.946 30C110.609 30 109.526 28.9163 109.526 27.5795V14.892C109.526 13.596 110.576 12.5454 111.872 12.5454H112.696C113.537 12.5454 114.219 13.2272 114.219 14.0681V15.4869C114.219 15.5443 114.265 15.5909 114.323 15.5909C114.369 15.5909 114.409 15.5603 114.423 15.5162C114.744 14.4699 115.27 13.6766 116.003 13.1363C116.753 12.5757 117.616 12.2954 118.594 12.2954C118.836 12.2954 119.098 12.3106 119.378 12.3409C119.816 12.3882 120.116 12.775 120.116 13.2156V15.7998C120.116 16.279 119.648 16.6422 119.173 16.5795C118.772 16.5265 118.404 16.5 118.071 16.5C117.359 16.5 116.723 16.6553 116.162 16.9659C115.609 17.2689 115.17 17.6931 114.844 18.2386C114.526 18.784 114.366 19.4128 114.366 20.125V27.5795C114.366 28.9163 113.283 30 111.946 30Z" fill="#EDC06C"/>
<path d="M97.787 30.3408C96.0218 30.3408 94.4953 29.9658 93.2074 29.2158C91.9271 28.4583 90.9385 27.4052 90.2415 26.0568C89.5445 24.7007 89.196 23.1287 89.196 21.3408C89.196 19.5378 89.5445 17.9621 90.2415 16.6136C90.9385 15.2575 91.9271 14.2045 93.2074 13.4545C94.4953 12.6969 96.0218 12.3181 97.787 12.3181C99.5521 12.3181 101.075 12.6969 102.355 13.4545C103.643 14.2045 104.635 15.2575 105.332 16.6136C106.029 17.9621 106.378 19.5378 106.378 21.3408C106.378 23.1287 106.029 24.7007 105.332 26.0568C104.635 27.4052 103.643 28.4583 102.355 29.2158C101.075 29.9658 99.5521 30.3408 97.787 30.3408ZM97.8097 26.5908C98.6127 26.5908 99.2832 26.3636 99.821 25.909C100.359 25.4469 100.764 24.8181 101.037 24.0227C101.317 23.2272 101.457 22.3219 101.457 21.3068C101.457 20.2916 101.317 19.3863 101.037 18.5908C100.764 17.7954 100.359 17.1666 99.821 16.7045C99.2832 16.2424 98.6127 16.0113 97.8097 16.0113C96.9991 16.0113 96.3173 16.2424 95.7642 16.7045C95.2188 17.1666 94.8059 17.7954 94.5256 18.5908C94.2529 19.3863 94.1165 20.2916 94.1165 21.3068C94.1165 22.3219 94.2529 23.2272 94.5256 24.0227C94.8059 24.8181 95.2188 25.4469 95.7642 25.909C96.3173 26.3636 96.9991 26.5908 97.8097 26.5908Z" fill="#EDC06C"/>
<path d="M72.071 36.5454C70.7342 36.5454 69.6506 35.4617 69.6506 34.1249V14.9318C69.6506 13.6138 70.719 12.5454 72.0369 12.5454H72.9574C73.767 12.5454 74.4233 13.2017 74.4233 14.0113V15.346C74.4233 15.4185 74.482 15.4772 74.5545 15.4772C74.6061 15.4772 74.6527 15.447 74.6747 15.4003C74.8851 14.9555 75.18 14.5038 75.5597 14.0454C75.9688 13.553 76.4991 13.1439 77.1506 12.8181C77.8097 12.4848 78.6279 12.3181 79.6051 12.3181C80.8779 12.3181 82.0521 12.6514 83.1278 13.3181C84.2036 13.9772 85.0635 14.9734 85.7074 16.3068C86.3513 17.6325 86.6733 19.2954 86.6733 21.2954C86.6733 23.2424 86.3589 24.8863 85.7301 26.2272C85.1089 27.5605 84.2604 28.5719 83.1847 29.2613C82.1165 29.9431 80.9195 30.284 79.5938 30.284C78.6544 30.284 77.8551 30.1287 77.196 29.8181C76.5445 29.5075 76.0104 29.1174 75.5938 28.6477C75.1922 28.1876 74.8821 27.7241 74.6634 27.2571C74.6485 27.2251 74.6166 27.2045 74.5813 27.2045C74.5317 27.2045 74.4915 27.2447 74.4915 27.2943V34.1249C74.4915 35.4617 73.4078 36.5454 72.071 36.5454ZM74.3892 21.2727C74.3892 22.3105 74.5332 23.2158 74.821 23.9886C75.1089 24.7613 75.5256 25.3636 76.071 25.7954C76.6165 26.2196 77.2794 26.4318 78.0597 26.4318C78.8475 26.4318 79.5142 26.2158 80.0597 25.784C80.6051 25.3446 81.018 24.7386 81.2983 23.9658C81.5862 23.1855 81.7301 22.2878 81.7301 21.2727C81.7301 20.2651 81.59 19.3787 81.3097 18.6136C81.0294 17.8484 80.6165 17.2499 80.071 16.8181C79.5256 16.3863 78.8551 16.1704 78.0597 16.1704C77.2718 16.1704 76.6051 16.3787 76.0597 16.7954C75.5218 17.2121 75.1089 17.803 74.821 18.5681C74.5332 19.3333 74.3892 20.2348 74.3892 21.2727Z" fill="#EDC06C"/>
<path d="M64.679 12.5455C65.6831 12.5455 66.4971 13.3595 66.4971 14.3636C66.4971 15.3678 65.6831 16.1818 64.679 16.1818H57.804C56.7998 16.1818 55.9858 15.3678 55.9858 14.3636C55.9858 13.3595 56.7998 12.5455 57.804 12.5455H64.679ZM58.3721 10.7841C58.3721 9.44732 59.4558 8.36365 60.7926 8.36365C62.1294 8.36365 63.2131 9.44732 63.2131 10.7841V24.6364C63.2131 25.0833 63.2812 25.4318 63.4176 25.6818C63.554 25.9243 63.7434 26.0947 63.9858 26.1932C64.2358 26.2917 64.5237 26.3409 64.8494 26.3409C65.0767 26.3409 65.304 26.322 65.5312 26.2841C65.8216 26.226 66.1029 26.4132 66.1641 26.703L66.597 28.7511C66.7208 29.3367 66.3767 29.9145 65.7926 30.0455C65.3532 30.1515 64.8191 30.2159 64.1903 30.2386C63.0237 30.2841 62.0009 30.1288 61.1221 29.7727C60.2509 29.4167 59.5729 28.8636 59.0881 28.1136C58.6032 27.3636 58.3646 26.4167 58.3721 25.2727V10.7841Z" fill="#EDC06C"/>
<path d="M52.9676 15.2287C53.6714 16.3497 52.6444 17.5917 51.3234 17.673L50.4783 17.725C49.8234 17.7653 49.2641 17.2788 48.8466 16.7727C48.5966 16.4621 48.267 16.2158 47.8579 16.034C47.4564 15.8446 46.9753 15.7499 46.4147 15.7499C45.6647 15.7499 45.0322 15.909 44.517 16.2272C44.0019 16.5378 43.7443 16.9545 43.7443 17.4772C43.7443 17.8939 43.911 18.2461 44.2443 18.534C44.5776 18.8219 45.1496 19.053 45.9602 19.2272L49.1193 19.8636C50.8163 20.2121 52.0814 20.7727 52.9147 21.5454C53.7481 22.3181 54.1647 23.3333 54.1647 24.5908C54.1647 25.7348 53.8276 26.7386 53.1534 27.6022C52.4867 28.4658 51.57 29.1401 50.4034 29.6249C49.2443 30.1022 47.9072 30.3408 46.392 30.3408C44.0814 30.3408 42.2405 29.8598 40.8693 28.8977C40.27 28.4715 39.7797 27.978 39.3984 27.4172C38.5928 26.2323 39.7025 24.8785 41.1334 24.8034L41.2605 24.7967C42.3943 24.7371 43.3357 25.674 44.2784 26.3068C44.8314 26.6704 45.5397 26.8522 46.4034 26.8522C47.2519 26.8522 47.9337 26.6893 48.4488 26.3636C48.9716 26.0302 49.2367 25.6022 49.2443 25.0795C49.2367 24.6401 49.0511 24.2802 48.6875 23.9999C48.3238 23.7121 47.7632 23.4924 47.0056 23.3408L43.9829 22.7386C42.2784 22.3977 41.0094 21.8068 40.1761 20.9658C39.3503 20.1249 38.9375 19.053 38.9375 17.7499C38.9375 16.6287 39.2405 15.6628 39.8466 14.8522C40.4602 14.0416 41.32 13.4166 42.4261 12.9772C43.5397 12.5378 44.8428 12.3181 46.3352 12.3181C48.5397 12.3181 50.2746 12.784 51.5397 13.7158C52.1296 14.1477 52.6056 14.652 52.9676 15.2287Z" fill="#EDC06C"/>
<path d="M25.6591 30.3295C24.5455 30.3295 23.553 30.1363 22.6818 29.7499C21.8106 29.356 21.1212 28.7764 20.6136 28.0113C20.1136 27.2386 19.8636 26.2764 19.8636 25.1249C19.8636 24.1552 20.0417 23.3408 20.3977 22.6818C20.7538 22.0227 21.2386 21.4924 21.8523 21.0908C22.4659 20.6893 23.1629 20.3863 23.9432 20.1818C24.7311 19.9772 25.5568 19.8333 26.4205 19.7499C27.4356 19.6439 28.2538 19.5454 28.875 19.4545C29.4962 19.356 29.947 19.2121 30.2273 19.0227C30.5076 18.8333 30.6477 18.553 30.6477 18.1818V18.1136C30.6477 17.3939 30.4205 16.8371 29.9659 16.4431C29.519 16.0492 28.8826 15.8522 28.0568 15.8522C27.1856 15.8522 26.4924 16.0454 25.9773 16.4318C25.1368 17.0497 24.2075 17.8029 23.1677 17.7184L23.0847 17.7117C21.7029 17.5995 20.7034 16.2418 21.5217 15.1227C21.6152 14.995 21.714 14.8707 21.8182 14.7499C22.4849 13.9696 23.3447 13.3711 24.3977 12.9545C25.4583 12.5302 26.6856 12.3181 28.0796 12.3181C29.0493 12.3181 29.9773 12.4318 30.8636 12.659C31.7576 12.8863 32.5493 13.2386 33.2386 13.7158C33.9356 14.1931 34.4849 14.8068 34.8864 15.5568C35.2879 16.2992 35.4886 17.1893 35.4886 18.2272V27.7045C35.4886 28.9722 34.4609 29.9999 33.1932 29.9999H32.108C31.4396 29.9999 30.8977 29.4581 30.8977 28.7897V27.6642C30.8977 27.6174 30.8598 27.5795 30.8131 27.5795C30.7813 27.5795 30.7523 27.5973 30.7375 27.6253C30.4599 28.1519 30.0929 28.6177 29.6364 29.0227C29.1667 29.4318 28.6023 29.7537 27.9432 29.9886C27.2841 30.2158 26.5227 30.3295 25.6591 30.3295ZM27.0455 26.9886C27.7576 26.9886 28.3864 26.8484 28.9318 26.5681C29.4773 26.2802 29.9053 25.8939 30.2159 25.409C30.5265 24.9242 30.6818 24.3749 30.6818 23.7613V22.5929C30.6818 22.2984 30.3378 22.0935 30.0568 22.1818C29.7993 22.2575 29.5076 22.3295 29.1818 22.3977C28.8561 22.4583 28.5303 22.5151 28.2046 22.5681C27.8788 22.6136 27.5833 22.6552 27.3182 22.6931C26.75 22.7764 26.2538 22.909 25.8296 23.0908C25.4053 23.2727 25.0758 23.5189 24.8409 23.8295C24.6061 24.1325 24.4886 24.5113 24.4886 24.9658C24.4886 25.6249 24.7273 26.1287 25.2046 26.4772C25.6894 26.8181 26.303 26.9886 27.0455 26.9886Z" fill="#EDC06C"/>
<line x1="24.5" y1="4.5" x2="134.5" y2="4.49999" stroke="#EDC06C" stroke-width="3"/>
<path d="M134 3C137.58 3 141.014 4.42232 143.546 6.95406C146.078 9.4858 147.5 12.9196 147.5 16.5C147.5 20.0804 146.078 23.5142 143.546 26.0459C141.014 28.5777 137.58 30 134 30V27.03C136.793 27.03 139.471 25.9206 141.446 23.9458C143.421 21.9711 144.53 19.2927 144.53 16.5C144.53 13.7073 143.421 11.0289 141.446 9.05417C139.471 7.07941 136.793 5.97 134 5.97V3Z" fill="#EDC06C"/>
<path d="M3.16764 30C1.69434 30 0.5 28.8057 0.5 27.3324V9C0.5 5.68629 3.18629 3 6.5 3H10.4559C12.3699 3 14.0004 3.39111 15.3476 4.17334C16.6948 4.94678 17.7216 6.02344 18.428 7.40332C19.1427 8.77441 19.5 10.3564 19.5 12.1494C19.5 13.9424 19.1386 15.5244 18.4157 16.8955C17.6928 18.2666 16.6455 19.3345 15.2737 20.0991C13.9101 20.8638 12.259 21.2461 10.3204 21.2461H6.26206C4.99879 21.2461 3.97471 20.222 3.97471 18.9587C3.97471 17.6955 4.99879 16.6714 6.26206 16.6714H9.45785C10.4847 16.6714 11.3307 16.4824 11.9961 16.1045C12.6697 15.7178 13.1708 15.186 13.4994 14.5093C13.8361 13.8237 14.0045 13.0371 14.0045 12.1494C14.0045 11.2529 13.8361 10.4707 13.4994 9.80273C13.1708 9.12598 12.6697 8.60303 11.9961 8.23389C11.3225 7.85596 10.4682 7.66699 9.4332 7.66699C7.44613 7.66699 5.83528 9.27784 5.83528 11.2649V27.3324C5.83528 28.8057 4.64094 30 3.16764 30Z" fill="#EDC06C"/>
</g>
<defs>
<clipPath id="clip0_101_2211">
<rect width="147" height="34" fill="white" transform="translate(0.5)"/>
</clipPath>
</defs>
</svg>
